<?xml version="1.0" encoding="utf-8"?>
<svg xmlns="http://www.w3.org/2000/svg" xmlns:xlink="http://www.w3.org/1999/xlink"
	 viewBox="0 0 590 400" preserveAspectRatio="none">
<style type="text/css">
	.st0{clip-path:url(#SVGID_2_);}
	.st1{fill:#FFFFFF;}
	.st2{clip-path:url(#SVGID_4_);}
	.st3{opacity:0.34;fill:#FCBE99;enable-background:new    ;}
	.st4{opacity:0.6;fill:#FCBE99;enable-background:new    ;}
	.st5{fill:#F75C00;}
	.st6{opacity:0.25;fill:#FCBE99;enable-background:new    ;}
	.st7{opacity:0.61;fill:#FFFFFF;enable-background:new    ;}
	.st8{fill:#4B4C5F;}
	.st9{fill:#FFB539;}
	.st10{fill:#E84700;}
	.st11{opacity:0.32;fill:#606060;enable-background:new    ;}
	.st12{opacity:0.3;fill:#606060;enable-background:new    ;}
	.st13{fill:#313F5E;}
	.st14{opacity:0.43;fill:#313F5E;enable-background:new    ;}
	.st15{opacity:0.43;}
	.st16{fill:none;stroke:#5A657E;stroke-width:2.63;stroke-linecap:round;stroke-miterlimit:10;}
	.st17{opacity:0.21;fill:#313F5E;enable-background:new    ;}
	.st18{opacity:0.61;}
	.st19{fill:none;stroke:#5B3725;stroke-width:5.91;stroke-miterlimit:10;}
	.st20{fill:#F7671E;}
	.st21{opacity:0.51;fill:#FFB539;enable-background:new    ;}
	.st22{opacity:0.45;fill:#F75C00;enable-background:new    ;}
	.st23{opacity:0.51;}
	.st24{opacity:0.42;fill:#FFB539;enable-background:new    ;}
	.st25{fill:#5B3725;}
</style>
<g>
	<g id="OBJECTS">
		<g>
			<defs>
				<rect id="SVGID_1_" x="0.7" y="0.4" width="590" height="400"/>
			</defs>
			<clipPath id="SVGID_2_">
				<use xlink:href="#SVGID_1_"  style="overflow:visible;"/>
			</clipPath>
			<g class="st0">
				<rect x="0.7" y="0.4" class="st1" width="590" height="398.7"/>
				<g>
					<defs>
						<rect id="SVGID_3_" x="0.7" y="0.4" width="590" height="398.7"/>
					</defs>
					<clipPath id="SVGID_4_">
						<use xlink:href="#SVGID_3_"  style="overflow:visible;"/>
					</clipPath>
					<g class="st2">
						<rect x="0.7" y="0.4" class="st3" width="590" height="398.7"/>
						<path class="st4" d="M566.9,386.1H40.5c-6.9,0-10.1-12.8-4.9-19.7l6.6-8.6c6.8-9,15.6-13.9,24.7-13.9h482.8
							c6.9,0,13.5,4,18.4,11.2l5.1,7.5C579.2,371.1,575.2,386.1,566.9,386.1z"/>
					</g>
				</g>
				<path class="st5" d="M327.3,60.7c4.7,0,8.5-3.8,8.5-8.6c0,0,0,0,0,0V0.2h-17.1v51.9C318.8,56.9,322.6,60.7,327.3,60.7
					C327.3,60.7,327.3,60.7,327.3,60.7z"/>
				<path class="st5" d="M266,87c7.9,0,14.4-6.5,14.4-14.5c0,0,0,0,0,0V-1.1h-28.8v73.7C251.6,80.5,258.1,87,266,87z"/>
				<path class="st5" d="M300.8,30.5c2.4,0,4.3-1.9,4.3-4.3v-26h-8.6v26C296.4,28.6,298.4,30.5,300.8,30.5
					C300.7,30.5,300.7,30.5,300.8,30.5z"/>
				<path class="st5" d="M390.4,76.5c-4.7,0-8.5,3.8-8.5,8.6v74c-0.2,4.7,3.5,8.7,8.2,8.9c4.7,0.2,8.7-3.5,8.8-8.3
					c0-0.2,0-0.4,0-0.6v-74C398.9,80.3,395.1,76.5,390.4,76.5C390.4,76.5,390.4,76.5,390.4,76.5z"/>
				<path class="st5" d="M343.2,106.3c2.4,0,4.3-1.9,4.3-4.3V65c0.1-2.4-1.7-4.4-4.1-4.5c-2.4-0.1-4.4,1.7-4.5,4.1
					c0,0.1,0,0.3,0,0.4v37C338.9,104.3,340.9,106.3,343.2,106.3z"/>
				<path class="st5" d="M347.5,48.3c6.4,0,11.5,5.1,11.6,11.5c0,0,0,0,0,0l0.1,22.5c-0.1,4.7,3.6,8.7,8.3,8.9
					c4.7,0.1,8.7-3.6,8.8-8.3c0-0.1,0-0.2,0-0.3V54.5c0-6.3,5.1-11.4,11.3-11.4c0,0,0,0,0,0h11.3c6.3,0,11.3,5.1,11.3,11.4h0.3
					v151.5c0,2.6,2.1,4.6,4.6,4.6l0,0h1.7c2.6,0,4.6,2.1,4.6,4.6c0,0,0,0,0,0v14.4c0,9.5,7.6,17.2,17,17.2c0,0,0,0,0,0l0,0
					c9.4,0,17.1-7.7,17.1-17.2v-2.5c0-6.9,5.5-12.4,12.3-12.5c0,0,0,0,0.1,0h6.9c6.8,0,12.3,5.6,12.3,12.4v12.2
					c0,4.1,3.3,7.4,7.4,7.4c0,0,0,0,0,0h19c4.1-0.1,7.3-3.4,7.2-7.5c0-2.5,2.1-4.5,4.6-4.5l0,0c2.5,0,4.6,2.1,4.6,4.6c0,0,0,0,0,0
					v28.1c0,2.6,2.1,4.6,4.6,4.6l0,0c2.5,0,4.6-2,4.7-4.6c0,0,0,0,0-0.1v-18.9c0-2.4,1.8-4.5,4.2-4.8c2.5-0.3,4.8,1.6,5.1,4.2
					c0,0.2,0,0.3,0,0.5v6l0,0v23.1c0,5.2,4.1,9.3,9.3,9.3c0,0,0,0,0,0l0,0c5.1,0,9.3-4.2,9.3-9.3v-4c0-2.6,2.1-4.6,4.6-4.6l0,0h9.3
					c2.5,0,4.6,2.1,4.6,4.6c0,0,0,0,0,0v4c0,3.6,2.1,6.8,5.1,8.3c1.3,0.6,0-285.7,0-285.7H342.1v42.5
					C342.1,45.8,344.5,48.3,347.5,48.3z"/>
				<path class="st6" d="M525.2,124.7L525.2,124.7c-9.4,0-18.5,3.9-25,10.7c-1.7,1.8-4.6,1.9-6.4,0.1c-0.9-0.9-1.4-2.1-1.4-3.3l0,0
					c0-24.3-19.6-43.9-43.7-43.9l0,0c-24.1,0-43.7,19.7-43.7,43.9l0,0v54c0-14.6-11.7-26.4-26.2-26.4c-0.3,0-0.6,0-0.9,0
					c-4.9,0.2-9.7,1.8-13.7,4.6c-2.5,1.9-6.1,1.3-8-1.2c-0.7-1-1.1-2.1-1.1-3.3v-0.2c0-19.3-15.6-35-34.8-35c0,0,0,0,0,0l0,0
					c-9.4,0-18.5,3.9-25,10.7c-1.7,1.8-4.6,1.9-6.4,0.1c-0.9-0.9-1.4-2.1-1.4-3.3l0,0c0-24.3-19.6-43.9-43.7-43.9l0,0
					c-24.1,0-43.7,19.7-43.7,43.9v54c0-14.6-11.7-26.4-26.2-26.4c-0.3,0-0.6,0-0.9,0c-14.2,0.5-25.3,12.7-25.3,27v133.6
					c0,13.2,10.7,23.9,23.8,23.9l0,0H528c17.7,0,32-14.4,32-32.1V159.7C560,140.3,544.5,124.7,525.2,124.7
					C525.2,124.7,525.2,124.7,525.2,124.7z"/>
				<path class="st7" d="M626.4,298.3L626.4,298.3c-0.9,0-1.6-1.5-1.6-3.3l1.2-26.3l2.1,26.3C628.1,296.9,627.3,298.3,626.4,298.3z"
					/>
				<path class="st7" d="M384.6,162.3L384.6,162.3c-0.9,0-1.6-1.5-1.6-3.3l1.2-26.3l2.1,26.3C386.3,160.8,385.5,162.3,384.6,162.3z"
					/>
				<path class="st7" d="M553.4,279.9L553.4,279.9c-0.9,0-1.6-1.5-1.6-3.3l1.2-26.3l2.1,26.3C555.1,278.4,554.3,279.9,553.4,279.9z"
					/>
				<path class="st7" d="M412.9,205L412.9,205c-0.7,0-1.4-1.2-1.4-2.7l1-21.9l1.7,21.9C414.2,203.8,413.6,205,412.9,205z"/>
				<path class="st7" d="M364.4,84.6L364.4,84.6c-0.9,0-1.6-1.5-1.6-3.3l1.2-26.2l2.1,26.2C366,83.1,365.3,84.6,364.4,84.6z"/>
				<path class="st8" d="M43.9,37.9c-0.5-0.3-1-0.7-1.2-1.2c-0.6-1.1-0.6-2.4,0-3.5c0.3-0.5,0.7-0.9,1.3-1.2
					c0.6-0.3,1.2-0.5,1.8-0.5c0.5,0,0.9,0.1,1.4,0.3c0.4,0.2,0.8,0.4,1.1,0.7l-0.4,0.5c-0.5-0.5-1.3-0.8-2-0.8c-0.5,0-1,0.1-1.4,0.4
					c-0.4,0.2-0.8,0.6-1,1c-0.8,1.3-0.4,3,1,3.8c0,0,0,0,0,0c0.4,0.2,0.9,0.4,1.4,0.4c0.7,0,1.5-0.3,2-0.8l0.4,0.5
					c-0.3,0.3-0.7,0.6-1.1,0.7C46,38.5,44.8,38.4,43.9,37.9z"/>
				<path class="st8" d="M50.6,37.9c-0.5-0.3-1-0.7-1.3-1.2c-0.6-1.1-0.6-2.4,0-3.5c0.3-0.5,0.7-0.9,1.3-1.2c1.1-0.6,2.5-0.6,3.6,0
					c0.5,0.3,1,0.7,1.3,1.2c0.6,1.1,0.6,2.4,0,3.5c-0.3,0.5-0.7,0.9-1.3,1.2c-0.6,0.3-1.2,0.4-1.8,0.4
					C51.8,38.4,51.2,38.2,50.6,37.9z M53.9,37.3c0.4-0.2,0.8-0.6,1-1c0.3-0.4,0.4-0.9,0.4-1.4c0-0.5-0.1-1-0.4-1.4
					c-0.2-0.4-0.6-0.8-1-1c-0.4-0.2-0.9-0.4-1.4-0.4c-0.5,0-1,0.1-1.4,0.4c-0.4,0.2-0.8,0.6-1,1c-0.2,0.4-0.4,0.9-0.4,1.4
					c0,0.5,0.1,1,0.4,1.4c0.2,0.4,0.6,0.8,1,1c0.4,0.2,0.9,0.4,1.4,0.4C52.9,37.7,53.4,37.6,53.9,37.3z"/>
				<path class="st8" d="M63.1,31.5v6.7h-0.6l-4.3-5.5v5.5h-0.7v-6.7h0.6l4.3,5.5v-5.5H63.1z"/>
				<path class="st8" d="M65.7,38.1c-0.4-0.1-0.8-0.3-1.1-0.6l0.3-0.5c0.3,0.3,0.6,0.5,1,0.6c0.4,0.1,0.8,0.2,1.2,0.2
					c0.5,0,0.9-0.1,1.3-0.3c0.3-0.2,0.5-0.5,0.4-0.9c0-0.2-0.1-0.5-0.2-0.6c-0.2-0.2-0.4-0.3-0.6-0.4c-0.3-0.1-0.7-0.2-1-0.3
					c-0.4-0.1-0.8-0.2-1.2-0.4c-0.3-0.1-0.6-0.3-0.8-0.5c-0.2-0.3-0.3-0.6-0.3-1c0-0.3,0.1-0.7,0.3-0.9c0.2-0.3,0.5-0.5,0.8-0.7
					c0.4-0.2,0.9-0.3,1.4-0.3c0.4,0,0.8,0.1,1.1,0.2c0.3,0.1,0.7,0.2,0.9,0.4l-0.2,0.6c-0.3-0.2-0.6-0.3-0.9-0.4
					c-0.3-0.1-0.6-0.1-0.9-0.1c-0.5,0-0.9,0.1-1.3,0.3c-0.3,0.2-0.5,0.5-0.4,0.9c0,0.2,0.1,0.5,0.2,0.7c0.2,0.2,0.4,0.3,0.6,0.4
					c0.3,0.1,0.7,0.2,1,0.3c0.4,0.1,0.8,0.2,1.2,0.4c0.3,0.1,0.6,0.3,0.8,0.5c0.2,0.3,0.3,0.6,0.3,1c0,0.3-0.1,0.7-0.3,0.9
					c-0.2,0.3-0.5,0.5-0.8,0.7c-0.4,0.2-0.9,0.3-1.4,0.3C66.7,38.4,66.2,38.3,65.7,38.1z"/>
				<path class="st8" d="M72.4,32.2h-2.4v-0.6h5.4v0.6h-2.4v6.1h-0.7V32.2z"/>
				<path class="st8" d="M81.2,38.3l-1.6-2.2c-0.2,0-0.4,0-0.5,0h-1.8v2.1h-0.7v-6.7h2.5c0.7,0,1.4,0.2,2,0.6c0.5,0.4,0.8,1,0.7,1.7
					c0,0.5-0.1,0.9-0.4,1.3c-0.3,0.4-0.7,0.7-1.1,0.8l1.6,2.3H81.2z M80.6,35.1c0.4-0.3,0.6-0.8,0.5-1.2c0-0.5-0.2-0.9-0.5-1.2
					c-0.4-0.3-1-0.5-1.5-0.4h-1.8v3.4h1.8C79.7,35.6,80.2,35.4,80.6,35.1z"/>
				<path class="st8" d="M84.2,37.6c-0.5-0.6-0.8-1.4-0.7-2.2v-3.9h0.7v3.8c0,0.6,0.1,1.3,0.5,1.8c0.9,0.8,2.2,0.8,3.1,0
					c0.4-0.5,0.6-1.1,0.5-1.8v-3.8H89v3.9c0.1,0.8-0.2,1.6-0.7,2.2C87.1,38.6,85.4,38.6,84.2,37.6z"/>
				<path class="st8" d="M91.2,31.5h2.7c0.7,0,1.3,0.1,1.9,0.4c0.5,0.3,1,0.7,1.3,1.2c0.6,1.1,0.6,2.4,0,3.5
					c-0.3,0.5-0.7,0.9-1.3,1.2c-0.6,0.3-1.2,0.4-1.9,0.4h-2.7V31.5z M93.9,37.7c0.5,0,1.1-0.1,1.5-0.4c0.4-0.2,0.8-0.6,1-1
					c0.2-0.4,0.4-0.9,0.4-1.4c0-0.5-0.1-1-0.4-1.4c-0.2-0.4-0.6-0.8-1-1c-0.5-0.2-1-0.4-1.5-0.4h-2v5.6L93.9,37.7z"/>
				<path class="st8" d="M99.1,31.5h0.7v6.7h-0.7V31.5z"/>
				<path class="st8" d="M107.6,31.5v6.7H107l-4.3-5.5v5.5H102v-6.7h0.6l4.3,5.5v-5.5H107.6z"/>
				<path class="st8" d="M110.9,37.9c-0.5-0.3-1-0.7-1.3-1.2c-0.6-1.1-0.6-2.4,0-3.5c0.3-0.5,0.7-0.9,1.3-1.2
					c0.6-0.3,1.2-0.5,1.8-0.5c0.6,0,1.2,0.1,1.8,0.5c0.5,0.3,1,0.7,1.3,1.2c0.6,1.1,0.6,2.4,0,3.5c-0.3,0.5-0.7,0.9-1.3,1.2
					C113.4,38.5,112,38.5,110.9,37.9L110.9,37.9z M114.1,37.3c0.4-0.2,0.8-0.6,1-1c0.2-0.4,0.4-0.9,0.4-1.4c0-0.5-0.1-1-0.4-1.4
					c-0.2-0.4-0.6-0.8-1-1c-0.9-0.5-2-0.5-2.9,0c-0.4,0.2-0.8,0.6-1,1c-0.2,0.4-0.4,0.9-0.4,1.4c0,0.5,0.1,1,0.4,1.4
					c0.2,0.4,0.6,0.8,1,1C112.2,37.8,113.2,37.8,114.1,37.3z"/>
				<path class="st8" d="M123.2,31.5l-3,6.7h-0.7l-3-6.7h0.8l2.6,5.9l2.6-5.9H123.2z"/>
				<path class="st8" d="M128.2,36.5h-3.7l-0.8,1.8h-0.7l3.1-6.7h0.7l3.1,6.7H129L128.2,36.5z M127.9,35.9l-1.6-3.6l-1.6,3.6H127.9z
					"/>
				<path class="st9" d="M33.6,33.4v2.9c0,1-0.8,1.9-1.9,1.9c0,0,0,0,0,0h-2.9c-1,0-1.9,0.8-1.9,1.9c0,0,0,0,0,0.1l0,0
					c0,1,0.8,1.9,1.9,1.9c0,0,0,0,0,0h6.6c1,0,1.9-0.8,1.9-1.9l0,0v-6.7c0-1-0.8-1.9-1.9-1.9l0,0l0,0C34.4,31.5,33.6,32.3,33.6,33.4
					L33.6,33.4z"/>
				<path class="st9" d="M33.6,29.6L33.6,29.6c0-1-0.8-1.9-1.9-1.9c0,0,0,0,0,0h-6.6c-1,0-1.9,0.8-1.9,1.9c0,0,0,0,0,0v6.7
					c0,1,0.8,1.9,1.9,1.9c0,0,0,0,0,0l0,0c1,0,1.9-0.8,1.9-1.9l0,0v-2.9c0-1,0.8-1.9,1.9-1.9c0,0,0,0,0,0h2.9
					C32.7,31.5,33.6,30.7,33.6,29.6C33.6,29.6,33.6,29.6,33.6,29.6z"/>
				<path class="st10" d="M546.3,357.5c-2.2-0.2-4.4-0.2-6.7-0.1h-63c0.1-0.3,0.4-5.9-0.7-5.3c1.1-0.6,1.8-1.9,1.6-3.2
					c-0.3-1.6-1.7-2.8-3.3-2.8h-80c-1.3,0-2.5,0.6-3.3,1.8c-0.5,0.7-0.6,1.6-0.3,2.4c-8.2,0-16.4-0.5-24.7-0.6
					c-6.7-0.1-15.3-1.1-21.6,1.3c-5.1,2-4.7,9.5,1.3,9.5h67.5c2.3,0,4.1,1.9,4.1,4.2c0,0,0,0,0,0.1v6.8c0,4.1,3.3,7.4,7.4,7.4h110.6
					c4.5,0,11.5,1.3,15.3-1.3C557.2,372.9,554.6,358.7,546.3,357.5z"/>
				<path class="st7" d="M424,373.5L424,373.5c0-0.9,1.5-1.6,3.3-1.6l26.1,1.2l-26.1,2C425.5,375.1,424,374.3,424,373.5z"/>
				<path class="st7" d="M393.4,350L393.4,350c0-0.9,1.5-1.6,3.3-1.6l26.1,1.2l-26.1,2.1C394.8,351.6,393.4,350.9,393.4,350z"/>
				<path class="st11" d="M473.3,355.5l14-10.3c1.1-0.8,1.7-2.1,1.7-3.5l0,0c0-2.4-1.9-4.3-4.3-4.3l0,0l-19.1,0.1L473.3,355.5z"/>
				<path class="st12" d="M462.9,181.9v45.6h1.8l-1.7,82.1c-0.1,2.5-2.1,4.4-4.5,4.4h-31.8c-5.7,0-10.4,4.7-10.4,10.5v0v15.7h5.9
					v-15.7c0-2.5,2-4.5,4.5-4.5c0,0,0,0,0,0h31.8c5.7,0,10.3-4.6,10.4-10.2l1.7-82.5c1.7-0.6,2.8-2.2,2.8-4v-35.6
					c0-3.2-2.6-5.7-5.7-5.7L462.9,181.9z"/>
				<polygon class="st4" points="383.1,364.3 272.4,363.6 284.4,351.4 370.3,351.4 				"/>
				<path class="st13" d="M277.4,288.7l0.9,67.7c0,1.4,12,4.2,26.7,4.2c14.7,0,26.7-2.9,26.7-4.2l1-67.7L277.4,288.7z"/>
				<path class="st13" d="M332.7,292.3h-55.4c-1,0-1.8-0.8-1.8-1.8l0,0c0-1,0.8-1.8,1.8-1.8h55.4c1,0,1.8,0.8,1.8,1.8l0,0
					C334.5,291.5,333.7,292.3,332.7,292.3z"/>
				<path class="st14" d="M296.7,345.5c-5.9,2.4-12.4,2.6-18.4,0.5v10.4c0,1.4,12,4.2,26.7,4.2c14.7,0,26.7-2.9,26.7-4.2l0.7-59.7
					C328.7,314.7,318.9,336.3,296.7,345.5z"/>
				<path class="st5" d="M298,288.4L298,288.4h-13.9c-1.3,0-2.4,1.1-2.4,2.4v0v5.7c0,0.8,0.5,1.5,1.3,1.7c0.9,0.1,1.7-0.4,1.8-1.3
					c0-0.1,0-0.2,0-0.3v-1.2c0-2.8,2.3-5.2,5.1-5.2c0.2,0,0.4,0,0.6,0h0.3c4.1,0.7,7.2,4.3,7.1,8.5v6.8c0,1.8,1.3,3.4,3.2,3.5
					c1.8,0.1,3.4-1.3,3.5-3.1c0-0.1,0-0.1,0-0.2v-10.5c0-0.8,0.5-1.5,1.2-1.8c0.2-0.1,0.5-0.1,0.7-0.1c0.5,0,1,0.2,1.4,0.4
					c0.5,0.3,0.7,0.9,0.7,1.5v15.9c0,1,0.7,1.9,1.7,2.2l0,0c1.4,0.4,2.3,1.6,2.3,3v7.8c0,2.1,1.5,3.8,3.5,4c2.2,0.2,4.1-1.4,4.3-3.5
					c0-0.1,0-0.3,0-0.4v-31.1c0-1,0.8-1.7,1.7-1.7l0,0c0.1,0,0.3,0,0.4,0c0.9,0.2,1.5,0.9,1.5,1.8v11.6c0,1.8,1.3,3.4,3.2,3.5
					c1.8,0.1,3.4-1.3,3.5-3.2c0-0.1,0-0.1,0-0.2v-13.8c0-1.6-1.3-3-2.9-3l0,0L298,288.4z"/>
				<path class="st7" d="M314.8,326.2L314.8,326.2c-0.7,0-1.2-0.6-1.2-1.3l0.7-15.8l1.7,15.8C316,325.6,315.5,326.2,314.8,326.2z"/>
				<path class="st7" d="M325.5,306.2L325.5,306.2c-0.3,0-0.6-0.3-0.6-0.6l0.4-7.9l0.9,7.9C326.1,305.9,325.9,306.2,325.5,306.2z"/>
				<path class="st7" d="M309.9,312.6L309.9,312.6c-0.4,0-0.7-0.3-0.7-0.7l0,0l0.4-8.7l1,8.7C310.7,312.3,310.3,312.6,309.9,312.6
					C310,312.6,309.9,312.6,309.9,312.6z"/>
				<path class="st7" d="M299.3,307.1L299.3,307.1c-0.4,0-0.7-0.3-0.7-0.7c0,0,0,0,0,0l0.4-8.7l1,8.7
					C300.1,306.8,299.8,307.1,299.3,307.1C299.4,307.1,299.4,307.1,299.3,307.1z"/>
				<path class="st7" d="M282.2,297L282.2,297c-0.2,0-0.3-0.2-0.3-0.3l0.2-4.4l0.5,4.4C282.6,296.8,282.4,297,282.2,297z"/>
				<g class="st15">
					<path class="st13" d="M331.8,333c-1.2,2.5-2.7,4.8-4.5,6.8c-4.6,5.2-10.7,7.9-18.1,8.2c-11,0.5-19.7-2.6-25.8-9.1
						c-2-2.2-3.7-4.6-5.1-7.2v5.1c0.9,1.4,2,2.7,3.1,3.9c6.3,6.6,14.9,10,25.6,10c0.7,0,1.4,0,2.2,0c8.2-0.3,14.9-3.4,20-9.1
						c0.9-1.1,1.8-2.2,2.5-3.4V333z"/>
					<path class="st13" d="M330.6,301.7c0,0.7,0.5,1.3,1.2,1.3v-2.6C331.1,300.5,330.6,301.1,330.6,301.7z"/>
					<path class="st13" d="M278.3,302.8c0.6-0.4,0.7-1.3,0.2-1.9c-0.1-0.1-0.2-0.2-0.2-0.3V302.8z"/>
				</g>
				<path class="st16" d="M276.6,299.3h-5c0,0-4.7,49.4,37.6,47.7c32.9-1.3,29.2-47.7,29.2-47.7h-4.6"/>
				<polygon class="st17" points="332.7,293 332.7,292.1 277.4,292.1 277.5,293 				"/>
				<g class="st18">
					<path class="st1" d="M283.8,289l13.1,0.3l-13.1,0.7c-0.3,0-0.5-0.3-0.4-0.5C283.4,289.2,283.5,289,283.8,289L283.8,289z"/>
				</g>
				<path class="st5" d="M281.7,290.8v1.4h4.3c1.1-1.4,2.9-2.2,4.6-1.9h0.3c1.5,0.2,3,0.9,4.2,1.9h25.9c0.3-0.5,0.9-0.8,1.4-0.8
					c0.1,0,0.3,0,0.4,0c0.5,0.1,0.9,0.3,1.1,0.7h7v-1c0-1.1-0.6-2.1-1.6-2.6H283C282.2,289.1,281.7,289.9,281.7,290.8z"/>
				<path class="st19" d="M427.2,345.3H410c-3.5,0-6.3-2.7-6.4-6.2c0-0.4,0-0.8,0.1-1.1l1.6-13.2c0.6-4.1,4-7.2,8.1-7.4h29
					c4.1-0.1,7.6-3.2,8.1-7.4l15.3-124.5"/>
				<path class="st9" d="M474.8,334.3l-57.1-0.1c-2.1-0.3-4.3,4.3-5,10.2c-0.5,4.1-0.1,7.7,0.8,9.6c0.2,0.9,1,1.5,1.8,1.5l57.3-0.1
					c1.8-0.2,3.1-2.6,3.5-5.4l0.3-10.7C476.8,336.5,477.5,334.3,474.8,334.3z"/>
				<path class="st20" d="M474.8,334.3l-30.9-0.1c-1.7,0-3,1.3-3,3l0,0c0,1.7-1.3,3-3,3h-24.5c-0.4,1.4-0.6,2.7-0.8,4.1
					c-0.1,1-0.2,1.9-0.2,2.8h28.2c2.8,0,5.5,1.5,7,3.9c1.7,2.7,4.6,4.4,7.8,4.4h17.3c1.8-0.2,3.1-2.6,3.5-5.4l0.3-10.7
					C476.8,336.5,477.5,334.3,474.8,334.3z"/>
				<path class="st21" d="M470.8,350.6h-53.1c-2.4,0-4.3-1.9-4.3-4.2c0-0.3,0-0.5,0.1-0.8l-0.6,4.8c-0.4,2.3,1.2,4.6,3.5,5
					c0.3,0,0.5,0.1,0.8,0.1h53.1c2.8-0.1,5.1-2.2,5.5-5l0.6-4.8C476,348.4,473.6,350.5,470.8,350.6z"/>
				<path class="st22" d="M412.6,347.5c0.7-5.9,1.1-10.2,5-10.2l57.1,0.1c1,0,1.6,0.3,1.8,0.9c0.3-2.3,0.5-4.1-1.8-4.1l-57.1-0.1
					c-2.1-0.3-4.3,4.3-5,10.2c-0.2,1.7-0.3,3.3-0.2,5C412.5,348.8,412.5,348.2,412.6,347.5z"/>
				<path class="st9" d="M461.3,228.4h-1.4c-2.6,0-4.8-2.1-4.8-4.7c0-0.3,0-0.6,0.1-0.9l4.9-40.3c0.4-3.1,3-5.4,6.1-5.6h1.4
					c2.6,0,4.8,2.1,4.8,4.7c0,0.3,0,0.6-0.1,0.9l-5,40.4C467,225.9,464.4,228.2,461.3,228.4z"/>
				<g class="st23">
					<path class="st24" d="M469.6,177.3l-4.8,39.2c-0.4,3.1-3,5.4-6.1,5.6h-1.4c-0.7,0-1.4-0.2-2-0.4l-0.1,1.2
						c-0.4,2.6,1.3,5.1,3.9,5.5c0.3,0,0.6,0.1,0.9,0.1h1.3c3.1-0.1,5.7-2.5,6.1-5.6l4.9-40.3C472.7,180.3,471.6,178.2,469.6,177.3z"
						/>
				</g>
				<path class="st5" d="M477.7,345.3c-0.7,5.9-3,10.5-5,10.2c-2-0.3-3.2-5.2-2.4-11.1c0.7-5.9,3-10.4,5-10.2
					C477.3,334.4,478.4,339.3,477.7,345.3z"/>
				<path class="st25" d="M475.8,345.1c-0.2,1.9-1.2,3.4-2.1,3.3s-1.5-1.8-1.2-3.7c0.2-1.9,1.2-3.4,2.1-3.3S476,343.2,475.8,345.1z"
					/>
			</g>
		</g>
	</g>
</g>
</svg>